<?xml version="1.0" encoding="utf-8"?>
<!-- Generator: Adobe Illustrator 27.0.0, SVG Export Plug-In . SVG Version: 6.00 Build 0)  -->
<svg version="1.1" id="Layer_1" xmlns="http://www.w3.org/2000/svg" xmlns:xlink="http://www.w3.org/1999/xlink" x="0px" y="0px"
	 viewBox="0 0 337.6 331.7" style="enable-background:new 0 0 337.6 331.7;" xml:space="preserve">
<style type="text/css">
	.st0{fill:#FFEE02;}
	.st1{fill:#2250AF;}
	.st2{font-family:'Helvetica-Bold';}
	.st3{font-size:57.0349px;}
</style>
<g>
	<polygon class="st0" points="306.4,193 333.6,165.9 306,138.3 320.8,102.3 285.3,87.7 285.3,49.3 246.4,49.3 231.3,13.4 
		195.9,28.2 168.8,1.1 141.2,28.6 105.2,13.8 90.6,49.3 52.3,49.3 52.3,88.3 16.3,103.3 31.1,138.7 4,165.9 31.5,193.4 16.8,229.4 
		52.3,244 52.3,282.4 91.2,282.4 106.2,318.3 141.6,303.5 168.8,330.6 196.3,303.1 232.4,317.9 246.9,282.4 285.3,282.4 
		285.3,243.4 321.2,228.4 	"/>
	<g>
		<text transform="matrix(1 0 0 1 110.0225 156.69)"><tspan x="0" y="0" class="st1 st2 st3">top</tspan><tspan x="-28.5" y="60.4" class="st1 st2 st3">Deal!</tspan></text>
	</g>
</g>
</svg>
