<?xml version="1.0" encoding="utf-8"?>
<!-- Generator: Adobe Illustrator 27.0.0, SVG Export Plug-In . SVG Version: 6.00 Build 0)  -->
<svg version="1.1" id="Layer_1" xmlns="http://www.w3.org/2000/svg" xmlns:xlink="http://www.w3.org/1999/xlink" x="0px" y="0px"
	 viewBox="0 0 335.2 105" style="enable-background:new 0 0 335.2 105;" xml:space="preserve">
<style type="text/css">
	.st0{fill:#2F3D48;}
	.st1{fill:#0145BD;}
</style>
<g>
	<g>
		<g>
			<path class="st0" d="M218.1,39.3c-2-3.6-4.6-6.1-7.9-7.4c-1.9-0.8-4.1-1.2-6.7-1.2c-6.9,0-12.3,2.6-16.1,7.8
				c-2,2.7-3.5,5.8-4.4,9.3c-0.7-2.6-1.9-5.1-3.3-7.2c-2.3-3.4-5.3-6-8.8-7.6c-3.6-1.6-7.6-2.4-12-2.4c-7.5,0-13.6,2.4-18.3,7.1
				c-4.7,4.7-7.1,11.5-7.1,20.4c0,9.5,2.6,16.3,7.8,20.5c5.2,4.2,11.2,6.3,18,6.3c8.3,0,14.7-2.5,19.3-7.5c2.8-2.9,4.4-5.8,4.9-8.6
				c1,2.9,2.4,5.5,4.3,7.7c3.9,4.6,9.2,6.9,15.8,6.9c4.3,0,7.7-1,10.4-3.1c1.5-1.1,2.8-2.7,4.1-4.9v3.3c0,4.9-0.5,8.4-1.6,10.4
				c-1.6,3.2-4.9,4.8-9.7,4.8c-3.4,0-5.8-0.6-7.3-1.8c-0.8-0.7-1.5-1.8-1.8-3.4H183c0.4,5.1,2.7,8.9,6.9,11.5
				c4.1,2.6,9.5,3.9,16,3.9c10.8,0,18.2-2.9,22-8.6c2.2-3.4,3.3-8.3,3.3-14.9V31.9h-13.1V39.3 M150.8,44.5c1.9-1.9,4.6-2.9,8-2.9
				c3.2,0,5.8,0.9,7.9,2.8c2.1,1.8,3.3,4.5,3.6,8.1h-23.1C147.7,49.1,148.9,46.5,150.8,44.5z M169.8,68.1c-0.8,1.5-1.7,2.7-2.8,3.5
				c-1.9,1.6-4.4,2.3-7.4,2.3c-2.9,0-5.3-0.6-7.4-1.9c-3.4-2.1-5.1-5.7-5.4-10.8h35c0.2,2.5,0.6,4.8,1.3,6.9H169.8z M214.8,68.6
				c-2.2,2.4-4.8,3.5-7.9,3.5c-4.7,0-7.9-2.2-9.7-6.5c-1-2.3-1.5-5-1.5-7.9c0-3.4,0.5-6.3,1.4-8.7c1.8-4.4,5-6.6,9.7-6.6
				c3.4,0,6.2,1.3,8.2,3.8c2,2.5,3.1,6.2,3.1,11.1C218,62.5,216.9,66.2,214.8,68.6z"/>
			<path class="st0" d="M270.6,38.4c-1.5-2.4-3.5-4.3-5.9-5.7c-2.4-1.4-5.2-2-8.3-2c-6.7,0-12.1,2.5-16.1,7.5c-4,5-6,11.9-6,20.6
				c0,7.6,2,13.8,6.1,18.6c4.1,4.8,9.1,7.3,15.1,7.3c3.6,0,6.7-0.7,9.1-2.1c2.4-1.4,4.6-3.6,6.5-6.6v7.1h13V14h-13.6V38.4z
				 M268,69.2c-2,2.8-4.9,4.2-8.6,4.2c-3.8,0-6.6-1.4-8.5-4.2c-1.9-2.8-2.8-6.6-2.8-11.3c0-4.4,0.9-8.1,2.7-11
				c1.8-3,4.7-4.4,8.6-4.4c2.6,0,4.8,0.8,6.8,2.4c3.2,2.7,4.7,7.2,4.7,13.4C271,62.8,270,66.4,268,69.2z"/>
			<path class="st0" d="M329.9,58c-2.7-2.5-6.7-4.4-12-5.7c-8-1.8-12.7-3-14-3.7c-1.3-0.7-2-1.8-2-3.3c0-1.2,0.6-2.3,1.9-3.2
				c1.2-0.9,3.3-1.4,6.2-1.4c3.5,0,6.1,0.9,7.5,2.7c0.8,1,1.3,2.4,1.5,4.1h13.4c-0.6-6.3-2.9-10.7-6.9-13.2c-4-2.6-9.2-3.8-15.6-3.8
				c-6.7,0-12,1.7-15.7,5.1c-3.7,3.4-5.6,7.5-5.6,12.2c0,4,1.2,7.1,3.6,9.2c2.4,2.2,6.5,4,12.3,5.4c8.1,1.9,12.7,3.3,14,4
				c1.3,0.8,1.9,1.9,1.9,3.4c0,1.6-0.8,2.7-2.3,3.5c-1.6,0.8-3.7,1.2-6.3,1.2c-4.5,0-7.6-0.9-9.2-2.7c-0.9-1-1.6-2.7-1.8-5.1h-13.6
				c0,5.3,1.9,9.6,5.8,13c3.8,3.4,9.8,5.1,17.9,5.1c7.9,0,13.7-1.6,17.5-4.8c3.8-3.2,5.7-7.3,5.7-12.4
				C333.9,63.8,332.6,60.6,329.9,58z"/>
			<polygon class="st0" points="57.4,13.9 1.3,13.9 1.3,26.1 22.1,26.1 22.1,83.1 36.7,83.1 36.7,26.1 57.4,26.1 			"/>
			<path class="st0" d="M117,59.7c0,3.3-0.4,5.9-1.3,7.9c-1.7,3.7-4.8,5.5-9.3,5.5c-3.5,0-5.9-1.3-7.1-3.9c-0.7-1.5-1-3.7-1-6.6v-5
				c-0.2-0.4-0.3-0.8-0.4-1.2c-2.5-8.6-5.5-17.2-8.6-25.7h-4.7v0H83v0c-0.6,0-1-0.1-1.1-0.1c-0.2,0-0.4,0-0.6,0c-4,0-7.3,1-9.8,3.1
				c-1.5,1.2-3.3,3.6-5.4,7v-8.9H53.3v51.2h13.5V58.6c0-4.1,0.5-7.1,1.6-9.1c1.8-3.5,5.5-5.3,10.8-5.3c0.4,0,0.9,0,1.6,0.1
				c0.7,0,1.4,0.1,2.2,0.2h1.4v18.3c0,5.8,0.7,10.3,2.2,13.3c2.6,5.4,7.7,8.2,15.3,8.2c2.6,0,4.9-0.3,6.9-1c2-0.7,4-2,6.1-3.9
				c0.7-0.6,1.3-1.3,1.8-2.1c0.5-0.8,0.8-1.2,0.9-1.4v7.2h13V43.2c-4.6,3.9-9.1,8-13.6,12.2V59.7z"/>
		</g>
	</g>
	<path class="st1" d="M112.9,27.4c2.5-1.8,4.9-3.5,7.4-5.2c12.3-8.3,25.1-15.5,39-20.6c2-0.7,3.8-1,5.9-0.2c1.7,0.6,3.6,1,5.4,1.5
		c0.9,0.2,1.4,0.8,1.5,1.7c0.1,0.9-0.4,1.5-1.2,1.8c-14.4,7.3-27,17.1-39.3,27.3c-8.3,6.9-16.4,14.2-24.2,21.8c-1.5,1.5-3,1.1-3.6-1
		c-3.6-12.3-8.1-24.3-12.5-36.2c-0.1-0.4-0.3-0.8-0.4-1.1c-0.3-0.9,0-1.6,0.8-2.1c2.1-1.2,4.2-2.4,6.3-3.5c0.9-0.5,1.7-0.2,2.5,0.7
		c2.8,3.3,5.5,6.7,8.3,10C110.1,24,111.5,25.7,112.9,27.4z"/>
</g>
</svg>
